<?xml version="1.0" encoding="UTF-8"?>
<svg id="Layer_1" data-name="Layer 1" xmlns="http://www.w3.org/2000/svg" viewBox="0 0 600 600">
  <defs>
    <style>
      .cls-1 {
        fill: #13af59;
      }

      .cls-1, .cls-2 {
        stroke-width: 0px;
      }

      .cls-2 {
        fill: #fff;
      }
    </style>
  </defs>
  <path class="cls-2" d="M600,600H0V0c200,0,400,0,600,0v600ZM343.19,389.03c2.41-.18,5.36-.78,7.58-3.01,7.95-7.95,15.8-16.01,23.74-23.98,17.24-17.29,34.5-34.55,51.76-51.82,1.6-1.6,3.1-3.27,4.19-5.25,1.64-2.97,1.82-5.99.28-9.07-1.06-2.11-2.5-3.92-4.15-5.59-12.92-13-25.84-26-38.77-39-3.11-3.13-6.25-6.24-9.36-9.38-9.1-9.16-18.25-18.28-27.27-27.52-3.64-3.72-8.95-4.31-13.24-1.97-1.4.76-2.68,1.67-3.9,2.69-5.49,4.62-9.74,10.47-15.11,15.22-1.66,1.47-1.53,2.84-.26,4.68.87,1.26,2.15,2.08,3.2,3.14,7.13,7.13,14.27,14.25,21.38,21.4.88.88,1.7,1.85,2.37,2.89,1.18,1.83,1.02,3.17-.59,4.67-2.79,2.59-6.08,4.34-9.71,5.44-1.76.53-3.56.74-5.41.61-4.13-.31-7.44-2.29-10.31-5.08-4.12-4.01-8.16-8.1-12.22-12.17-6.18-6.19-12.38-12.37-18.52-18.6-7.59-7.71-15.03-15.58-23.08-22.83-3.65-3.29-7.63-4.26-12.18-2.32-1.12.48-2.33.66-3.3,1.63-16.48,16.63-33,33.22-49.52,49.81-8.76,8.8-17.54,17.57-26.31,26.36-1.65,1.66-3.18,3.41-4.31,5.47-1.61,2.91-1.7,5.85-.22,8.84,1.09,2.19,2.62,4.04,4.33,5.76,13.57,13.65,27.13,27.3,40.7,40.95,4.58,4.61,9.18,9.21,13.77,13.81,7.01,7.02,14.02,14.03,21.01,21.05,1.37,1.38,2.83,2.71,4.75,3.06,3.47.65,6.78.11,9.75-2,2.38-1.69,4.56-3.6,6.58-5.71,2.71-2.83,5.42-5.65,8.16-8.45.87-.89,1.87-1.66,2.73-2.56,1.93-2.04,1.98-3.27.14-5.42-.86-1.01-1.92-1.84-2.86-2.79-7.57-7.62-15.14-15.25-22.71-22.88-.29-.3-.61-.58-.86-.9-1.16-1.49-1.25-2.89-.04-4.33,4.04-4.81,10.16-8.07,17.32-6.4,3.59.84,6.54,2.8,9.12,5.39,15.86,15.96,31.71,31.92,47.59,47.85,1.99,2,4.1,3.88,6.24,5.71,1.95,1.67,4.24,2.62,7.49,2.59Z"/>
  <path class="cls-1" d="M343.19,389.03c-3.25.03-5.54-.92-7.49-2.59-2.14-1.83-4.25-3.72-6.24-5.71-15.88-15.93-31.73-31.89-47.59-47.85-2.57-2.59-5.52-4.55-9.12-5.39-7.15-1.67-13.28,1.59-17.32,6.4-1.21,1.44-1.12,2.83.04,4.33.25.33.57.61.86.9,7.57,7.63,15.14,15.26,22.71,22.88.94.94,2,1.78,2.86,2.79,1.84,2.15,1.79,3.39-.14,5.42-.86.9-1.86,1.67-2.73,2.56-2.74,2.8-5.45,5.62-8.16,8.45-2.02,2.11-4.2,4.02-6.58,5.71-2.97,2.11-6.27,2.65-9.75,2-1.92-.36-3.38-1.69-4.75-3.06-7-7.03-14.01-14.04-21.01-21.05-4.59-4.6-9.19-9.2-13.77-13.81-13.57-13.65-27.14-27.3-40.7-40.95-1.71-1.72-3.25-3.57-4.33-5.76-1.48-2.99-1.38-5.93.22-8.84,1.14-2.06,2.66-3.82,4.31-5.47,8.77-8.78,17.55-17.56,26.31-26.36,16.52-16.59,33.04-33.18,49.52-49.81.97-.98,2.18-1.16,3.3-1.63,4.56-1.94,8.53-.96,12.18,2.32,8.05,7.25,15.48,15.12,23.08,22.83,6.14,6.23,12.34,12.41,18.52,18.6,4.06,4.07,8.1,8.17,12.22,12.17,2.87,2.78,6.17,4.77,10.31,5.08,1.86.14,3.65-.07,5.41-.61,3.63-1.1,6.92-2.85,9.71-5.44,1.61-1.5,1.76-2.84.59-4.67-.67-1.04-1.5-2.01-2.37-2.89-7.11-7.15-14.25-14.27-21.38-21.4-1.06-1.06-2.33-1.89-3.2-3.14-1.27-1.84-1.41-3.21.26-4.68,5.37-4.75,9.62-10.6,15.11-15.22,1.21-1.02,2.5-1.93,3.9-2.69,4.29-2.34,9.61-1.75,13.24,1.97,9.02,9.24,18.17,18.36,27.27,27.52,3.11,3.13,6.24,6.25,9.36,9.38,12.92,13,25.84,26,38.77,39,1.66,1.66,3.1,3.48,4.15,5.59,1.54,3.08,1.36,6.1-.28,9.07-1.1,1.99-2.6,3.66-4.19,5.25-17.26,17.27-34.53,34.53-51.76,51.82-7.94,7.96-15.78,16.02-23.74,23.98-2.22,2.22-5.18,2.83-7.58,3.01Z"/>
</svg>