<?xml version="1.0" encoding="UTF-8"?>
<svg id="Layer_1" data-name="Layer 1" xmlns="http://www.w3.org/2000/svg" viewBox="0 0 461 524.08">
  <defs>
    <style>
      .cls-1 {
        fill: #88bfd7;
      }

      .cls-1, .cls-2, .cls-3, .cls-4, .cls-5, .cls-6 {
        stroke-width: 0px;
      }

      .cls-2 {
        fill: #9ac4d7;
      }

      .cls-3 {
        fill: #cbdfe9;
      }

      .cls-4 {
        fill: #abcedd;
      }

      .cls-5 {
        fill: #adcfde;
      }

      .cls-6 {
        fill: #00b6fd;
      }
    </style>
  </defs>
  <path class="cls-6" d="M361,107q3,2,3.5,4.38-.5,2.62-2.44,4.69c-3.22,2.04-6.47,3.45-9.97,4.93-2.6,1.25-4.34,2.72-6.09,5.01v2c.99.35,1.98.7,3,1.06,11.57,5.01,18.52,16.43,23.93,27.24q1.07,2.7,1.07,6.7h2q.34-1.05.69-2.12c2.23-4.89,4.98-8.5,9.81-10.88q3.5-1,6.44-.19c.68.39,1.36.78,2.06,1.19q.42,5.36-1.43,8.18-.99,1.06-2,2.14c-4.41,5.14-7.38,10.61-10.42,16.62-1.61,3.19-3.19,6.12-5.24,9.06-2.32,3.67-3.38,7.24-4.59,11.38-2.93,9.33-7.18,17.34-12.31,25.62-.45.73-.9,1.46-1.37,2.22-2.2,3.56-4.42,7.11-6.67,10.65-2.9,4.62-3.06,6.71-2.96,12.2.02,1.47.03,2.94.05,4.41.03,2.3.07,4.6.11,6.9.29,14.99-.04,32.77-9.67,45.12-3.41,3.41-6.04,4.79-10.88,4.88-6.25-.16-9.65-3.33-13.88-7.62-.91-.91-1.81-1.82-2.75-2.75h-2c-4.86,11.66-7.28,23.52-9,36-.11.74-.22,1.48-.33,2.24-.93,7.04-.59,12.21,3.61,17.96,2.15,2.68,4.42,5.23,6.72,7.8,1.29,1.64,2.54,3.3,3.75,5,.49.66.98,1.32,1.48,2q.77,2,.09,4.62-1.33,2.38-4.33,4.38c-2.74-.03-5.28-.55-8-1,.74,2.26,1.49,4.5,2.25,6.75.2.63.41,1.27.62,1.92,1.37,4,2.73,6.76,6.13,9.33,6.78,1.94,14.08-1.05,20.54-3.07,19.01-5.89,35.91-5.24,53.61,3.89,15.47,8.21,40.17,23.51,45.86,41.18-.49,4.25-1.44,5.54-4.75,8.25-5.47,2.94-9.87,4-16.08,3.88-1.29-.02-2.59-.03-3.92-.05-2.03-.04-4.05-.08-6.08-.12q-14.2-.33-27.23,4.67c-.75.45-1.51.89-2.29,1.35-.55.34-1.09.68-1.65,1.02.81,10.53,8.11,17.69,15,25,2.37,2.63,4.7,5.3,7,8,.69.8,1.39,1.61,2.11,2.44,5.03,6.01,8.14,10.83,9.39,18.69-.67,3.87-2.36,6.59-5.5,8.88-16.7,6.38-37.43,1.57-54-3-.76-.2-1.53-.4-2.31-.6-20.01-5.32-39.27-18.76-49.8-36.65-5.66-10.72-8.39-22.57-10.05-34.49-1.17-4.57-3.43-6.41-7.43-8.81-.96-.49-1.93-.97-2.92-1.47-1.07-.55-2.14-1.09-3.24-1.66-1.11-.56-2.23-1.12-3.38-1.7q-20.88-10.56-27.88-16.62c-.33.69-.65,1.37-.99,2.08-.44.9-.87,1.8-1.32,2.73-.43.89-.86,1.79-1.3,2.71-1.68,3-3.13,4.95-6.32,6.29-2.67.24-3.8-.42-6.06-1.81q-1.2-1.63-2.12-3.56c-.31-.62-.62-1.24-.95-1.88-2.26-6.22-3.06-12.05-2.95-18.65.1-11.42-3.15-17.92-9.67-27.02-12.82-18.64-19.31-42.93-23.3-64.9q-.28-1.52-.56-3.07c-1.3-7.72-1.79-15.23-1.75-23.06,0-1.17,0-2.34.01-3.55.24-18.31,3.2-37.15,12.3-53.32-.95.23-1.9.45-2.88.69-5.05.71-9.53-.62-14.12-2.69-3.82-3.44-5.11-6.98-6-12-.24-8.86,1.84-16.57,7.99-23.12,10.85-9.37,23.73-13.98,37.26-17.94,11.53-3.38,20.05-7.41,29.69-14.62,15.27-11.29,32.52-19.26,50.06-26.31q1.18-.48,2.38-.98c8.2-3.34,15.4-5.24,24.25-5.77q5.82-.32,10.64-3.38c1.07-1.74,2.08-3.52,3.04-5.33,5.04-7.56,18.04-11.2,26.7-10.55ZM338.96,118.68c-2.32,2.68-3.99,5.38-5.67,8.51q-2.29,2.81-5.55,3.4c-1.28-.03-2.55-.06-3.87-.09-9.73.15-17.86,3.03-26.88,6.5-.86.32-1.72.64-2.6.97-19.4,7.26-36.86,16.94-53.48,29.31-9.52,6.97-20.12,9.81-31.35,12.99-8.93,2.62-16.92,6.2-24.44,11.73-.88.64-1.77,1.28-2.68,1.94-5.36,4.52-7.98,9.02-8.63,16.08-.13,4.37.05,8.15,2.19,11.98,4.65,2.88,9.6,3.52,15,3q2.2-.93,4-2h3c-.58,4.62-1.87,8.28-3.81,12.5-16.71,37.59-10.07,78.24,3.67,115.57,5.25,13.54,11.98,25.95,20.14,37.93,1.17,2.34,1.15,3.83,1.21,6.44q.04,1.34.09,2.71c.05,1.87.1,3.73.13,5.6.23,6.65.51,14.85,5.17,20.03.46.4.92.8,1.4,1.22,5.46-4.73,6.17-10.05,7-17,3.49,1.53,6.29,3.16,9.06,5.75,4.39,3.83,9.3,6.42,14.44,9.12.97.52,1.93,1.04,2.93,1.58,4.38,2.36,8.78,4.67,13.24,6.85q1.03.52,2.08,1.04c1.81.9,3.63,1.77,5.45,2.64,5.36,3.85,6.12,9.75,7.18,15.95,2.39,12.77,5.58,24.6,13.62,35.06q.6.8,1.21,1.61c4.16,5.23,9.11,8.79,14.66,12.45.93.61,1.87,1.23,2.83,1.86,7.84,5.02,15.37,8.53,24.3,11.08q1.13.35,2.29.71c14.78,4.55,36.12,8.92,50.71,2.29,1.36-5.44.84-8.05-1.76-12.94-1.95-3.22-4.29-5.96-6.81-8.74-1.07-1.22-2.13-2.44-3.2-3.66-1.58-1.79-3.17-3.58-4.77-5.36q-15.67-17.51-15.36-26.39c1.29-4.2,3.63-6.14,7.36-8.38,8.49-3.82,15.98-4.04,25.16-3.65q15.66.76,29.38-5.88c-1.33-6.36-5.2-9.82-9.69-14.19-.76-.75-1.52-1.5-2.31-2.27-15.08-14.55-35.03-29.36-56.75-29.98-10.68.34-21.11,2.3-31.25,5.62-6.2,2.02-11.51,3.08-17.75.81-6.21-5.52-9.69-13.76-10.56-21.94q.31-2.06,2.31-4.06,2.38-.2,5.12-.12c.91.02,1.82.04,2.76.05q1.05.03,2.12.07c-1.33-2.84-2.84-5.26-4.75-7.75-.53-.69-1.05-1.38-1.59-2.09-.55-.71-1.09-1.42-1.66-2.16-1.09-1.41-2.17-2.83-3.25-4.25-.48-.62-.96-1.25-1.45-1.89-6.54-9.38-3.16-22.38-1.28-32.98.92-4.77,2.08-9.45,3.42-14.12.19-.68.39-1.36.58-2.06,1.48-4.86,3.46-11.02,7.85-13.94,4.48.53,7.73,4.85,10.75,7.94,3.18,3.09,4.79,4.28,9.25,4.38,4.5-1.53,6.61-4.1,9.12-8.06,4.16-8.9,5.2-18.79,4.95-28.49-.02-.76-.04-1.52-.05-2.3-.08-3.15-.17-6.3-.31-9.45-.48-11.49.77-18.95,7.42-28.76q.8-1.27,1.62-2.57c1.47-2.33,2.98-4.63,4.5-6.93,4.72-7.3,8.22-14.19,10.88-22.5,2.95-9.05,7.13-16.88,12-25,.55-.96,1.11-1.92,1.68-2.9,2.77-4.76,5.65-8.99,9.32-13.1l-1-2c-5.42,4.12-8.44,7.96-11.54,14.02-.48.65-.96,1.3-1.46,1.98h-4q-.33-1.22-.66-2.46c-3.61-12.59-8.8-23.61-19.27-31.86-2.5-1.38-4.71-2.32-7.38-3.25-1.22-.47-2.43-.95-3.69-1.44q-1-3-.18-4.9c4.89-7.62,9.55-10.62,18.18-13.1v-1c-6.96-.43-14.66,2.25-20.04,6.68Z"/>
  <path class="cls-1" d="M447,179h7v1h-7v-1Z"/>
  <path class="cls-5" d="M427,188h1v6h-1v-6Z"/>
  <path class="cls-4" d="M440,180l4,1-4-1Z"/>
  <path class="cls-3" d="M458,180l3,1-3-1Z"/>
  <path class="cls-2" d="M437,181l2,1-2-1Z"/>
</svg>